:SAMPLES-PER-SECOND 30
:FULLY-SPECIFIED
:DEGREES
470
root  -54.3018 6.25334 -21.5208 153.918 -56.4389 -154.767
RightUpLeg  -89.2144 -1.01519 18.1811
RightLeg  157.639 16.0571 -7.43302
RightFoot  -53.2146 6.99889 14.5583
RightToes  10.3105 0.0244753 0.099334
Spine  24.4912 4.01986 5.77908
Spine1  39.4404 5.11772 10.5435
HEad  -90.3493 -20.0103 13.2236
LeftShoulder1  -1.94126e-019 -3.10601e-018 -2.51263e-017
LeftArm  41.9167 -64.4836 -126.312
LeftForeArm  48.1453 -6.03164 -1.03315
LeftHand  -0.414584 -4.1345 5.32944
RightShoulder  -4.96962e-017 0 -2.36833e-017
RightArm  -0.932498 71.2896 99.7471
RightForeArm  75.2897 3.56695 0.545725
RightHand  -0.378459 -2.318 -14.054
LeftUpLeg  -87.621 19.9609 39.0553
LeftLeg  162.869 2.78743 -1.05592
LeftFoot  -48.1947 -3.51838 -7.69502
LeftToes  -9.83726 2.03064e-006 1.83538e-008
471
root  -54.3246 6.20565 -21.5359 154.088 -56.4352 -155.042
RightUpLeg  -89.1724 -1.002 18.2201
RightLeg  157.925 15.9448 -7.28604
RightFoot  -53.5792 7.02291 14.4956
RightToes  12.6942 0.0248471 0.122616
Spine  24.4238 4.02503 5.72347
Spine1  39.3036 5.08768 10.4926
HEad  -90.2801 -20.0999 13.3002
LeftShoulder1  -1.94126e-019 -3.10601e-018 -2.51263e-017
LeftArm  41.4139 -64.5 -125.752
LeftForeArm  48.1553 -6.07026 -1.04015
LeftHand  -0.409517 -4.11898 5.27536
RightShoulder  -4.96962e-017 0 -2.36833e-017
RightArm  0.0336176 71.1007 100.119
RightForeArm  76.1228 3.27404 0.492178
RightHand  -0.381077 -2.29285 -14.0411
LeftUpLeg  -87.3482 20.068 39.2373
LeftLeg  162.996 3.00486 -1.13083
LeftFoot  -48.3533 -3.4903 -7.6037
LeftToes  -9.90425 2.03064e-006 1.83538e-008
472
root  -54.3697 6.12338 -21.5579 154.381 -56.277 -155.61
RightUpLeg  -89.0499 -0.750006 18.1688
RightLeg  158.271 16.1194 -7.25018
RightFoot  -53.8271 7.15062 14.6718
RightToes  13.0535 0.0251978 0.126129
Spine  24.419 4.09331 5.60489
Spine1  39.2772 5.1538 10.3722
HEad  -90.0267 -20.1793 13.472
LeftShoulder1  -1.94126e-019 -3.10601e-018 -2.51263e-017
LeftArm  41.0399 -64.6088 -125.487
LeftForeArm  47.9733 -6.1064 -1.04622
LeftHand  -0.424062 -4.07685 5.47448
RightShoulder  -4.96962e-017 0 -2.36833e-017
RightArm  1.56385 71.019 100.707
RightForeArm  76.7438 2.9432 0.43317
RightHand  -0.349712 -2.63041 -14.3961
LeftUpLeg  -86.6297 20.192 39.5899
LeftLeg  163.255 3.2664 -1.21262
LeftFoot  -48.859 -3.52529 -7.58989
LeftToes  -9.20177 2.03064e-006 1.83538e-008
473
root  -54.4515 6.03891 -21.5761 154.057 -56.2846 -155.981
RightUpLeg  -88.2182 -0.919956 17.9132
RightLeg  158.661 16.1338 -7.1266
RightFoot  -54.3754 7.28454 14.7664
RightToes  12.9491 0.025528 0.125108
Spine  24.7274 4.06417 5.55997
Spine1  39.7277 5.01096 10.3277
HEad  -89.9282 -20.3211 13.9649
LeftShoulder1  -1.94126e-019 -3.10601e-018 -2.51263e-017
LeftArm  41.0723 -64.8977 -126.002
LeftForeArm  48.1105 -6.06904 -1.03953
LeftHand  -0.421156 -4.03187 5.46207
RightShoulder  -4.96962e-017 0 -2.36833e-017
RightArm  3.14678 71.4337 101.589
RightForeArm  76.4457 2.6234 0.378471
RightHand  -0.318368 -2.85563 -14.2041
LeftUpLeg  -85.616 19.6738 39.7661
LeftLeg  163.598 3.27034 -1.19191
LeftFoot  -49.5908 -3.70638 -7.8512
LeftToes  -8.32494 2.03064e-006 1.83538e-008
474
root  -54.5021 5.95184 -21.594 153.994 -56.2517 -156.017
RightUpLeg  -88.0548 -0.889412 17.8946
RightLeg  159.011 16.2042 -7.04114
RightFoot  -54.8048 7.40935 14.8766
RightToes  13.8571 0.0258383 0.125621
Spine  24.6804 4.03924 5.56259
Spine1  39.6544 4.97948 10.2813
HEad  -89.6181 -20.2572 14.2024
LeftShoulder1  -1.94126e-019 -3.10601e-018 -2.51263e-017
LeftArm  41.1401 -64.9597 -126.066
LeftForeArm  48.1748 -6.06416 -1.03833
LeftHand  -0.42723 -3.93071 5.59065
RightShoulder  -4.96962e-017 0 -2.36833e-017
RightArm  3.87722 71.3959 102.108
RightForeArm  76.438 2.69132 0.390917
RightHand  -0.292084 -3.10098 -14.3567
LeftUpLeg  -85.2561 19.5534 40.2528
LeftLeg  163.93 3.51353 -1.25766
LeftFoot  -50.0909 -3.76882 -7.89362
LeftToes  -7.13581 2.03064e-006 1.83538e-008
475
root  -54.5317 5.88676 -21.6015 153.952 -56.189 -156.072
RightUpLeg  -87.9762 -0.810105 17.913
RightLeg  159.232 16.304 -7.0112
RightFoot  -54.9862 7.48123 14.9591
RightToes  14.0419 0.0261291 0.126696
Spine  24.6933 4.02511 5.57171
Spine1  39.6723 4.95269 10.2669
HEad  -89.3029 -20.1965 14.5284
LeftShoulder1  -1.94126e-019 -3.10601e-018 -2.51263e-017
LeftArm  41.3503 -65.0121 -126.38
LeftForeArm  48.2824 -6.00518 -1.02778
LeftHand  -0.426112 -3.77311 5.66269
RightShoulder  -4.96962e-017 0 -2.36833e-017
RightArm  4.33499 71.5289 102.614
RightForeArm  76.6931 2.76192 0.402827
RightHand  -0.282582 -3.18032 -14.36
LeftUpLeg  -84.9963 19.4348 40.5872
LeftLeg  164.135 3.64189 -1.28904
LeftFoot  -50.3257 -3.81657 -7.95218
LeftToes  -7.08495 2.03064e-006 1.83538e-008
476
root  -54.5513 5.85815 -21.6015 153.94 -56.078 -156.128
RightUpLeg  -87.9441 -0.675231 17.8878
RightLeg  159.332 16.3573 -7.00076
RightFoot  -54.9862 7.48673 14.9696
RightToes  14.2179 0.0264006 0.128218
Spine  24.7226 4.02389 5.568
Spine1  39.7203 4.92664 10.2656
HEad  -88.6424 -20.0837 14.7915
LeftShoulder1  -1.94126e-019 -3.10601e-018 -2.51263e-017
LeftArm  41.5569 -65.0464 -126.65
LeftForeArm  48.38 -5.90707 -1.01004
LeftHand  -0.433358 -3.80649 5.73566
RightShoulder  -4.96962e-017 0 -2.36833e-017
RightArm  4.80587 71.6477 103.126
RightForeArm  76.7299 2.77473 0.405394
RightHand  -0.261322 -3.3718 -14.468
LeftUpLeg  -84.7492 19.3457 40.7453
LeftLeg  164.285 3.59795 -1.26289
LeftFoot  -50.639 -3.91492 -8.1021
LeftToes  -6.26306 2.03064e-006 1.83538e-008
477
root  -54.5473 5.86584 -21.5918 153.931 -55.9572 -156.157
RightUpLeg  -87.9697 -0.551357 17.8504
RightLeg  159.275 16.3634 -7.02209
RightFoot  -54.7932 7.43009 14.92
RightToes  13.8355 0.0266531 0.130072
Spine  24.7799 4.02666 5.551
Spine1  39.8162 4.91776 10.2465
HEad  -87.2338 -20.1978 15.5
LeftShoulder1  -1.94126e-019 -3.10601e-018 -2.51263e-017
LeftArm  41.7311 -65.093 -126.911
LeftForeArm  48.4285 -5.81415 -0.993425
LeftHand  -0.436693 -3.7097 5.83303
RightShoulder  -4.96962e-017 0 -2.36833e-017
RightArm  5.17768 71.7215 103.487
RightForeArm  76.5199 2.72573 0.397757
RightHand  -0.240465 -3.56224 -14.6183
LeftUpLeg  -84.691 19.2559 40.7346
LeftLeg  164.294 3.48636 -1.22306
LeftFoot  -50.5983 -3.95669 -8.19767
LeftToes  -6.19634 2.03064e-006 1.83538e-008
478
root  -54.5283 5.90392 -21.5786 153.896 -55.8675 -156.125
RightUpLeg  -88.0067 -0.487797 17.8278
RightLeg  159.116 16.2876 -7.04249
RightFoot  -54.5313 7.32109 14.7898
RightToes  13.6683 0.0268871 0.132143
Spine  24.8283 4.02152 5.51736
Spine1  39.8917 4.89599 10.2157
HEad  -84.3806 -20.9926 16.662
LeftShoulder1  -1.94126e-019 -3.10601e-018 -2.51263e-017
LeftArm  41.7978 -65.1219 -127.073
LeftForeArm  48.4435 -5.72905 -0.978261
LeftHand  -0.440089 -3.78331 5.83382
RightShoulder  -4.96962e-017 0 -2.36833e-017
RightArm  5.37629 71.7036 103.653
RightForeArm  76.4138 2.60553 0.377069
RightHand  -0.234805 -3.60624 -14.6015
LeftUpLeg  -84.7655 19.1604 40.5612
LeftLeg  164.2 3.24481 -1.14419
LeftFoot  -50.4839 -4.0033 -8.31771
LeftToes  -5.89992 2.03064e-006 1.83538e-008
479
root  -54.5033 5.94976 -21.5496 153.815 -55.7922 -156.013
RightUpLeg  -88.0613 -0.55913 17.7081
RightLeg  158.838 16.0789 -7.04373
RightFoot  -54.5496 7.24427 14.6359
RightToes  13.962 0.0271029 0.135016
Spine  24.8503 4.00617 5.47929
Spine1  39.9118 4.8607 10.1776
HEad  -80.3275 -22.6467 18.0774
LeftShoulder1  -1.94126e-019 -3.10601e-018 -2.51263e-017
LeftArm  41.7447 -65.1094 -127.032
LeftForeArm  48.4056 -5.70351 -0.974151
LeftHand  -0.431568 -3.89915 5.66185
RightShoulder  -4.96962e-017 0 -2.36833e-017
RightArm  5.54292 71.6273 103.656
RightForeArm  76.5635 2.44691 0.348975
RightHand  -0.229255 -3.64893 -14.5802
LeftUpLeg  -84.953 19.0701 40.3169
LeftLeg  164.094 2.97503 -1.05512
LeftFoot  -50.3505 -4.05884 -8.46092
LeftToes  -5.47121 2.03064e-006 1.83538e-008
480
root  -54.48 5.99766 -21.5344 153.748 -55.8013 -155.921
RightUpLeg  -88.1598 -0.680747 17.6579
RightLeg  158.674 16.1069 -7.11032
RightFoot  -53.9948 7.13013 14.581
RightToes  11.0149 0.0272997 0.106208
Spine  24.8426 3.98564 5.4286
Spine1  39.8794 4.83568 10.1037
HEad  -75.8837 -24.8607 19.6426
LeftShoulder1  -1.94126e-019 -3.10601e-018 -2.51263e-017
LeftArm  41.7179 -65.0349 -126.901
LeftForeArm  48.5473 -5.69259 -0.972401
LeftHand  -0.422454 -4.04225 5.47265
RightShoulder  -4.96962e-017 0 -2.36833e-017
RightArm  5.63359 71.4863 103.515
RightForeArm  77.2777 2.26334 0.314903
RightHand  -0.229683 -3.63782 -14.5163
LeftUpLeg  -85.1332 19.0502 40.0706
LeftLeg  163.957 2.79753 -0.999584
LeftFoot  -50.1872 -4.06979 -8.5161
LeftToes  -5.53186 2.03064e-006 1.83538e-008
481
root  -54.4633 6.03122 -21.507 153.676 -55.8214 -155.826
RightUpLeg  -88.241 -0.834847 17.5431
RightLeg  158.588 15.7659 -6.98769
RightFoot  -53.8314 6.93519 14.2479
RightToes  12.4635 0.0274803 0.120361
Spine  24.8385 3.96184 5.39261
Spine1  39.8568 4.78597 10.0666
HEad  -71.108 -27.4121 20.9613
LeftShoulder1  -1.94126e-019 -3.10601e-018 -2.51263e-017
LeftArm  41.6877 -65.0023 -126.754
LeftForeArm  48.9868 -5.75017 -0.982118
LeftHand  -0.418711 -4.18971 5.35206
RightShoulder  -4.96962e-017 0 -2.36833e-017
RightArm  5.87209 71.4461 103.491
RightForeArm  77.9216 1.99802 0.266448
RightHand  -0.242334 -3.56093 -14.7301
LeftUpLeg  -85.2995 19.0494 39.8156
LeftLeg  163.857 2.70173 -0.970591
LeftFoot  -50.0629 -4.05988 -8.51943
LeftToes  -5.53866 2.03064e-006 1.83538e-008
